<svg width="40" height="43" viewBox="0 0 40 43" fill="none" xmlns="http://www.w3.org/2000/svg">
<path d="M12.791 32.3167C13.017 32.5427 13.3334 32.6782 13.6045 32.6782C13.8757 32.6782 14.1921 32.5427 14.4181 32.3167L19.9774 26.7573L25.5367 32.3167C25.7627 32.5427 26.0791 32.6782 26.3503 32.6782C26.6667 32.6782 26.9379 32.5427 27.1639 32.3167C27.6158 31.8647 27.6158 31.1415 27.1639 30.6443L21.6497 25.085L27.2091 19.5257C27.661 19.0737 27.661 18.3506 27.2091 17.8534C26.7571 17.4014 26.0339 17.4014 25.5367 17.8534L19.9774 23.4579L14.4181 17.8986C13.9661 17.4466 13.243 17.4466 12.7458 17.8986C12.2938 18.3506 12.2938 19.0737 12.7458 19.5709L18.3051 25.085L12.791 30.6443C12.339 31.0963 12.339 31.8647 12.791 32.3167Z" fill="#146ABB"/>
<path d="M38.7797 6.41808H26.7119V4.74576C26.7119 2.12429 24.5876 0 21.9661 0H17.9887C15.3672 0 13.2429 2.12429 13.2429 4.74576V6.41808H1.17514C0.542373 6.41808 0 6.96045 0 7.59322C0 8.22599 0.542373 8.76836 1.17514 8.76836H38.8249C39.4576 8.76836 40 8.22599 40 7.59322C40 6.96045 39.4576 6.41808 38.7797 6.41808ZM15.548 4.74576C15.548 3.38983 16.6328 2.30508 17.9887 2.30508H21.9661C23.322 2.30508 24.4068 3.38983 24.4068 4.74576V6.41808H15.548V4.74576Z" fill="#146ABB"/>
<path d="M35.5706 13.3787C34.9378 13.3787 34.3955 13.921 34.3955 14.5538V37.5595C34.3955 39.2318 33.0395 40.5877 31.3672 40.5877H8.63274C6.96043 40.5877 5.60449 39.2318 5.60449 37.5595V14.5538C5.60449 13.921 5.06212 13.3787 4.42935 13.3787C3.79658 13.3787 3.25421 13.921 3.25421 14.5538V37.5595C3.25421 40.5425 5.64969 42.938 8.63274 42.938H31.3672C34.3503 42.938 36.7457 40.5425 36.7457 37.5595V14.5538C36.7005 13.921 36.2034 13.3787 35.5706 13.3787Z" fill="#146ABB"/>
</svg>
