<svg width="30" height="30" viewBox="0 0 30 30" fill="none" xmlns="http://www.w3.org/2000/svg">
<path d="M29.7371 28.3956L21.4703 20.044C23.3593 17.7778 24.3038 15.1697 24.3038 12.2198C24.3038 10.5592 23.9825 8.9768 23.3398 7.47253C22.6972 5.96825 21.8354 4.66911 20.7546 3.57509C19.6738 2.48107 18.3836 1.61172 16.8841 0.967033C15.3846 0.322344 13.8072 0 12.1519 0C9.95131 0 7.91626 0.542125 6.04674 1.62637C4.17722 2.71062 2.70204 4.19048 1.62123 6.06593C0.540409 7.94139 0 9.98779 0 12.2051C0 14.4225 0.540409 16.4689 1.62123 18.3443C2.70204 20.2198 4.17722 21.6996 6.04674 22.7839C7.91626 23.8681 9.95131 24.4103 12.1519 24.4103C15.1899 24.4103 17.8578 23.4042 20.1558 21.3919L28.3934 29.7143C28.4713 29.7924 28.554 29.8559 28.6417 29.9048C28.7293 29.9536 28.8218 29.9829 28.9192 29.9927C29.0166 30.0024 29.1139 30.0024 29.2113 29.9927C29.3087 29.9829 29.4012 29.9536 29.4888 29.9048C29.5764 29.8559 29.6592 29.7924 29.7371 29.7143C29.9124 29.5385 30 29.3187 30 29.0549C30 28.7912 29.9124 28.5714 29.7371 28.3956ZM12.1519 22.5055C10.2824 22.5055 8.55891 22.0415 6.9815 21.1136C5.40409 20.1856 4.15774 18.9304 3.24245 17.348C2.32717 15.7656 1.86952 14.0464 1.86952 12.1905C1.86952 10.3346 2.32717 8.61539 3.24245 7.03297C4.15774 5.45055 5.40409 4.19536 6.9815 3.2674C8.55891 2.33944 10.2775 1.87546 12.1373 1.87546C13.9971 1.87546 15.7157 2.33944 17.2931 3.2674C18.8705 4.19536 20.1217 5.45055 21.0467 7.03297C21.9718 8.61539 22.4343 10.3346 22.4343 12.1905C22.4343 14.9451 21.48 17.3187 19.5716 19.3114C17.6826 21.2845 15.3846 22.3492 12.6777 22.5055H12.1519Z" fill="#242529"/>
<path d="M6.5 12.2002C6.5 11.6479 6.94772 11.2002 7.5 11.2002H16.8C17.3523 11.2002 17.8 11.6479 17.8 12.2002C17.8 12.7525 17.3523 13.2002 16.8 13.2002H7.5C6.94772 13.2002 6.5 12.7525 6.5 12.2002Z" fill="#242529"/>
</svg>
