<svg width="20" height="20" viewBox="0 0 20 20" fill="none" xmlns="http://www.w3.org/2000/svg">
<path d="M13.7253 4.23501C13.3604 3.92166 12.772 3.92166 12.4071 4.23501L6.21781 9.54916C6.14877 9.60832 6.09399 9.67859 6.05661 9.75596C6.01924 9.83332 6 9.91625 6 10C6 10.0838 6.01924 10.1667 6.05661 10.244C6.09399 10.3214 6.14877 10.3917 6.21781 10.4508L12.4071 15.765C12.772 16.0783 13.3604 16.0783 13.7253 15.765C14.0903 15.4516 14.0903 14.9464 13.7253 14.6331L8.33303 9.9968L13.7328 5.36051C14.0903 5.05356 14.0903 4.54196 13.7253 4.23501Z" fill="#242529"/>
</svg>
