<svg width="50" height="50" viewBox="0 0 50 50" fill="none" xmlns="http://www.w3.org/2000/svg">
<circle cx="25" cy="25" r="25" fill="#4BCA5A"/>
<path d="M33.7556 16.1328C31.4174 13.7891 28.3036 12.5 24.9944 12.5C18.1641 12.5 12.606 18.058 12.606 24.8884C12.606 27.0703 13.1752 29.202 14.2578 31.0826L12.5 37.5L19.0681 35.7757C20.8761 36.7634 22.9129 37.2824 24.9888 37.2824H24.9944C31.8192 37.2824 37.5 31.7243 37.5 24.894C37.5 21.5848 36.0938 18.4766 33.7556 16.1328ZM24.9944 35.1953C23.1417 35.1953 21.3281 34.6987 19.7489 33.7612L19.375 33.5379L15.4799 34.5592L16.5179 30.7589L16.2723 30.3683C15.24 28.7277 14.6987 26.8359 14.6987 24.8884C14.6987 19.2132 19.3192 14.5926 25 14.5926C27.7511 14.5926 30.3348 15.6641 32.2768 17.6116C34.2188 19.5592 35.4129 22.1429 35.4074 24.894C35.4074 30.5748 30.6696 35.1953 24.9944 35.1953ZM30.6417 27.4833C30.3348 27.327 28.8114 26.5792 28.5268 26.4788C28.2422 26.3728 28.0357 26.3225 27.8292 26.635C27.6228 26.9475 27.0313 27.6395 26.8471 27.8516C26.6685 28.058 26.4844 28.0859 26.1775 27.9297C24.3583 27.0201 23.1641 26.3058 21.9643 24.2467C21.6462 23.6998 22.2824 23.7388 22.8739 22.5558C22.9743 22.3493 22.9241 22.1708 22.846 22.0145C22.7679 21.8583 22.1484 20.3348 21.8917 19.7154C21.6406 19.1127 21.3839 19.1964 21.1942 19.1853C21.0156 19.1741 20.8092 19.1741 20.6027 19.1741C20.3962 19.1741 20.0614 19.2522 19.7768 19.5592C19.4922 19.8717 18.6942 20.6194 18.6942 22.1429C18.6942 23.6663 19.8047 25.1395 19.9554 25.346C20.1116 25.5525 22.1373 28.6775 25.2455 30.0223C27.2098 30.8705 27.9799 30.9431 28.9621 30.798C29.5592 30.7087 30.7924 30.0502 31.0491 29.3248C31.3058 28.5993 31.3058 27.9799 31.2277 27.8516C31.1551 27.7121 30.9487 27.6339 30.6417 27.4833Z" fill="white"/>
</svg>
