<svg width="20" height="20" viewBox="0 0 20 20" fill="none" xmlns="http://www.w3.org/2000/svg">
<path d="M6.27465 15.765C6.6396 16.0783 7.22799 16.0783 7.59294 15.765L13.7822 10.4508C13.8512 10.3917 13.906 10.3214 13.9434 10.244C13.9808 10.1667 14 10.0838 14 10C14 9.91625 13.9808 9.83332 13.9434 9.75596C13.906 9.6786 13.8512 9.60832 13.7822 9.54916L7.59294 4.23501C7.22799 3.92166 6.6396 3.92166 6.27465 4.23501C5.9097 4.54836 5.9097 5.05356 6.27465 5.36691L11.667 10.0032L6.2672 14.6395C5.9097 14.9464 5.9097 15.458 6.27465 15.765Z" fill="#242529"/>
</svg>
